<svg width="13" height="13" xmlns="http://www.w3.org/2000/svg" xmlns:xlink="http://www.w3.org/1999/xlink" xml:space="preserve" overflow="hidden"><defs><clipPath id="clip0"><rect x="592" y="312" width="13" height="13"/></clipPath></defs><g clip-path="url(#clip0)" transform="translate(-592 -312)"><path d="M603.361 317.848 602 317.071 601.902 315.203 600.035 315.105 599.257 313.744 597.656 314.064 595.079 319.887 594.2 320.766C593.604 321.342 593.587 322.292 594.164 322.889 594.74 323.485 595.69 323.501 596.286 322.925 596.299 322.913 596.311 322.901 596.323 322.888L597.159 322.053 603.041 319.449ZM601.73 317.088 599.278 318.995 598.11 317.827 600.017 315.375 601.644 315.461ZM596.762 319.119 595.954 320.158 595.469 319.673 596.035 318.394ZM596.153 318.128 596.729 316.828 597.75 317.85 596.929 318.905ZM596.147 320.351 596.955 319.312 597.792 320.15 596.754 320.958ZM595.381 319.967 597.121 321.708 596.64 322.189 594.9 320.449ZM596.947 321.151 597.985 320.344 598.712 321.07 597.432 321.636ZM598.201 320.176 599.256 319.355 600.277 320.377 598.977 320.952ZM598.008 319.983 597.122 319.097 597.943 318.042 599.063 319.162ZM597.847 314.302 599.119 314.048 599.791 315.225 597.918 317.634 596.847 316.563ZM596.132 322.697C595.651 323.177 594.872 323.177 594.392 322.697 593.911 322.216 593.911 321.437 594.392 320.957L594.708 320.64 596.448 322.38ZM600.542 320.259 599.471 319.188 601.88 317.314 603.057 317.987 602.803 319.258Z" stroke="#FFFFFF" stroke-width="0.787879" stroke-linecap="butt" stroke-linejoin="miter" stroke-miterlimit="4" stroke-opacity="1" fill="#000000" fill-rule="nonzero" fill-opacity="1"/></g></svg>